<?xml version='1.0' encoding='UTF-8'?>
<svg width="100%" height="100%" version="1.1" viewBox="0 0 41 41" xmlns="http://www.w3.org/2000/svg"><path d="M2,2H3V3H2zM3,2H4V3H3zM4,2H5V3H4zM5,2H6V3H5zM6,2H7V3H6zM7,2H8V3H7zM8,2H9V3H8zM10,2H11V3H10zM11,2H12V3H11zM13,2H14V3H13zM21,2H22V3H21zM22,2H23V3H22zM24,2H25V3H24zM25,2H26V3H25zM29,2H30V3H29zM30,2H31V3H30zM32,2H33V3H32zM33,2H34V3H33zM34,2H35V3H34zM35,2H36V3H35zM36,2H37V3H36zM37,2H38V3H37zM38,2H39V3H38zM2,3H3V4H2zM8,3H9V4H8zM11,3H12V4H11zM12,3H13V4H12zM14,3H15V4H14zM15,3H16V4H15zM16,3H17V4H16zM17,3H18V4H17zM18,3H19V4H18zM21,3H22V4H21zM24,3H25V4H24zM27,3H28V4H27zM30,3H31V4H30zM32,3H33V4H32zM38,3H39V4H38zM2,4H3V5H2zM4,4H5V5H4zM5,4H6V5H5zM6,4H7V5H6zM8,4H9V5H8zM11,4H12V5H11zM12,4H13V5H12zM14,4H15V5H14zM15,4H16V5H15zM16,4H17V5H16zM17,4H18V5H17zM19,4H20V5H19zM23,4H24V5H23zM24,4H25V5H24zM25,4H26V5H25zM28,4H29V5H28zM30,4H31V5H30zM32,4H33V5H32zM34,4H35V5H34zM35,4H36V5H35zM36,4H37V5H36zM38,4H39V5H38zM2,5H3V6H2zM4,5H5V6H4zM5,5H6V6H5zM6,5H7V6H6zM8,5H9V6H8zM10,5H11V6H10zM11,5H12V6H11zM12,5H13V6H12zM13,5H14V6H13zM17,5H18V6H17zM20,5H21V6H20zM22,5H23V6H22zM25,5H26V6H25zM26,5H27V6H26zM27,5H28V6H27zM28,5H29V6H28zM29,5H30V6H29zM30,5H31V6H30zM32,5H33V6H32zM34,5H35V6H34zM35,5H36V6H35zM36,5H37V6H36zM38,5H39V6H38zM2,6H3V7H2zM4,6H5V7H4zM5,6H6V7H5zM6,6H7V7H6zM8,6H9V7H8zM10,6H11V7H10zM11,6H12V7H11zM13,6H14V7H13zM16,6H17V7H16zM19,6H20V7H19zM24,6H25V7H24zM25,6H26V7H25zM27,6H28V7H27zM28,6H29V7H28zM29,6H30V7H29zM30,6H31V7H30zM32,6H33V7H32zM34,6H35V7H34zM35,6H36V7H35zM36,6H37V7H36zM38,6H39V7H38zM2,7H3V8H2zM8,7H9V8H8zM10,7H11V8H10zM11,7H12V8H11zM12,7H13V8H12zM13,7H14V8H13zM15,7H16V8H15zM16,7H17V8H16zM19,7H20V8H19zM21,7H22V8H21zM26,7H27V8H26zM27,7H28V8H27zM32,7H33V8H32zM38,7H39V8H38zM2,8H3V9H2zM3,8H4V9H3zM4,8H5V9H4zM5,8H6V9H5zM6,8H7V9H6zM7,8H8V9H7zM8,8H9V9H8zM10,8H11V9H10zM12,8H13V9H12zM14,8H15V9H14zM16,8H17V9H16zM18,8H19V9H18zM20,8H21V9H20zM22,8H23V9H22zM24,8H25V9H24zM26,8H27V9H26zM28,8H29V9H28zM30,8H31V9H30zM32,8H33V9H32zM33,8H34V9H33zM34,8H35V9H34zM35,8H36V9H35zM36,8H37V9H36zM37,8H38V9H37zM38,8H39V9H38zM10,9H11V10H10zM11,9H12V10H11zM13,9H14V10H13zM14,9H15V10H14zM16,9H17V10H16zM17,9H18V10H17zM23,9H24V10H23zM24,9H25V10H24zM25,9H26V10H25zM2,10H3V11H2zM6,10H7V11H6zM8,10H9V11H8zM9,10H10V11H9zM10,10H11V11H10zM11,10H12V11H11zM13,10H14V11H13zM14,10H15V11H14zM18,10H19V11H18zM22,10H23V11H22zM23,10H24V11H23zM24,10H25V11H24zM25,10H26V11H25zM26,10H27V11H26zM29,10H30V11H29zM30,10H31V11H30zM31,10H32V11H31zM32,10H33V11H32zM33,10H34V11H33zM34,10H35V11H34zM35,10H36V11H35zM38,10H39V11H38zM2,11H3V12H2zM6,11H7V12H6zM9,11H10V12H9zM10,11H11V12H10zM16,11H17V12H16zM19,11H20V12H19zM20,11H21V12H20zM21,11H22V12H21zM25,11H26V12H25zM27,11H28V12H27zM28,11H29V12H28zM29,11H30V12H29zM30,11H31V12H30zM33,11H34V12H33zM34,11H35V12H34zM35,11H36V12H35zM37,11H38V12H37zM2,12H3V13H2zM5,12H6V13H5zM7,12H8V13H7zM8,12H9V13H8zM9,12H10V13H9zM12,12H13V13H12zM13,12H14V13H13zM14,12H15V13H14zM15,12H16V13H15zM17,12H18V13H17zM19,12H20V13H19zM21,12H22V13H21zM23,12H24V13H23zM25,12H26V13H25zM29,12H30V13H29zM34,12H35V13H34zM2,13H3V14H2zM4,13H5V14H4zM5,13H6V14H5zM7,13H8V14H7zM9,13H10V14H9zM10,13H11V14H10zM17,13H18V14H17zM18,13H19V14H18zM19,13H20V14H19zM20,13H21V14H20zM21,13H22V14H21zM22,13H23V14H22zM23,13H24V14H23zM28,13H29V14H28zM32,13H33V14H32zM36,13H37V14H36zM37,13H38V14H37zM6,14H7V15H6zM8,14H9V15H8zM9,14H10V15H9zM12,14H13V15H12zM13,14H14V15H13zM14,14H15V15H14zM15,14H16V15H15zM16,14H17V15H16zM19,14H20V15H19zM20,14H21V15H20zM22,14H23V15H22zM23,14H24V15H23zM24,14H25V15H24zM26,14H27V15H26zM29,14H30V15H29zM31,14H32V15H31zM32,14H33V15H32zM33,14H34V15H33zM35,14H36V15H35zM36,14H37V15H36zM37,14H38V15H37zM38,14H39V15H38zM6,15H7V16H6zM7,15H8V16H7zM12,15H13V16H12zM14,15H15V16H14zM17,15H18V16H17zM20,15H21V16H20zM23,15H24V16H23zM25,15H26V16H25zM27,15H28V16H27zM28,15H29V16H28zM29,15H30V16H29zM34,15H35V16H34zM35,15H36V16H35zM2,16H3V17H2zM4,16H5V17H4zM6,16H7V17H6zM8,16H9V17H8zM9,16H10V17H9zM10,16H11V17H10zM12,16H13V17H12zM14,16H15V17H14zM15,16H16V17H15zM16,16H17V17H16zM17,16H18V17H17zM18,16H19V17H18zM19,16H20V17H19zM22,16H23V17H22zM23,16H24V17H23zM24,16H25V17H24zM25,16H26V17H25zM26,16H27V17H26zM28,16H29V17H28zM29,16H30V17H29zM30,16H31V17H30zM32,16H33V17H32zM33,16H34V17H33zM34,16H35V17H34zM35,16H36V17H35zM36,16H37V17H36zM2,17H3V18H2zM4,17H5V18H4zM5,17H6V18H5zM10,17H11V18H10zM12,17H13V18H12zM13,17H14V18H13zM14,17H15V18H14zM15,17H16V18H15zM16,17H17V18H16zM18,17H19V18H18zM19,17H20V18H19zM20,17H21V18H20zM21,17H22V18H21zM23,17H24V18H23zM24,17H25V18H24zM28,17H29V18H28zM30,17H31V18H30zM32,17H33V18H32zM33,17H34V18H33zM34,17H35V18H34zM36,17H37V18H36zM38,17H39V18H38zM2,18H3V19H2zM4,18H5V19H4zM5,18H6V19H5zM6,18H7V19H6zM7,18H8V19H7zM8,18H9V19H8zM10,18H11V19H10zM11,18H12V19H11zM12,18H13V19H12zM13,18H14V19H13zM14,18H15V19H14zM15,18H16V19H15zM20,18H21V19H20zM21,18H22V19H21zM23,18H24V19H23zM24,18H25V19H24zM30,18H31V19H30zM31,18H32V19H31zM32,18H33V19H32zM35,18H36V19H35zM36,18H37V19H36zM37,18H38V19H37zM2,19H3V20H2zM3,19H4V20H3zM6,19H7V20H6zM7,19H8V20H7zM9,19H10V20H9zM10,19H11V20H10zM14,19H15V20H14zM15,19H16V20H15zM18,19H19V20H18zM19,19H20V20H19zM21,19H22V20H21zM22,19H23V20H22zM23,19H24V20H23zM24,19H25V20H24zM25,19H26V20H25zM27,19H28V20H27zM28,19H29V20H28zM30,19H31V20H30zM33,19H34V20H33zM34,19H35V20H34zM37,19H38V20H37zM3,20H4V21H3zM5,20H6V21H5zM7,20H8V21H7zM8,20H9V21H8zM9,20H10V21H9zM10,20H11V21H10zM12,20H13V21H12zM14,20H15V21H14zM16,20H17V21H16zM18,20H19V21H18zM20,20H21V21H20zM22,20H23V21H22zM25,20H26V21H25zM26,20H27V21H26zM29,20H30V21H29zM30,20H31V21H30zM31,20H32V21H31zM32,20H33V21H32zM35,20H36V21H35zM2,21H3V22H2zM3,21H4V22H3zM4,21H5V22H4zM6,21H7V22H6zM9,21H10V22H9zM13,21H14V22H13zM14,21H15V22H14zM15,21H16V22H15zM16,21H17V22H16zM19,21H20V22H19zM23,21H24V22H23zM24,21H25V22H24zM26,21H27V22H26zM28,21H29V22H28zM30,21H31V22H30zM36,21H37V22H36zM37,21H38V22H37zM2,22H3V23H2zM8,22H9V23H8zM9,22H10V23H9zM13,22H14V23H13zM14,22H15V23H14zM16,22H17V23H16zM17,22H18V23H17zM18,22H19V23H18zM19,22H20V23H19zM21,22H22V23H21zM23,22H24V23H23zM24,22H25V23H24zM26,22H27V23H26zM31,22H32V23H31zM32,22H33V23H32zM33,22H34V23H33zM36,22H37V23H36zM2,23H3V24H2zM5,23H6V24H5zM9,23H10V24H9zM11,23H12V24H11zM13,23H14V24H13zM14,23H15V24H14zM16,23H17V24H16zM17,23H18V24H17zM19,23H20V24H19zM20,23H21V24H20zM23,23H24V24H23zM25,23H26V24H25zM27,23H28V24H27zM29,23H30V24H29zM30,23H31V24H30zM31,23H32V24H31zM33,23H34V24H33zM34,23H35V24H34zM37,23H38V24H37zM38,23H39V24H38zM3,24H4V25H3zM4,24H5V25H4zM5,24H6V25H5zM7,24H8V25H7zM8,24H9V25H8zM9,24H10V25H9zM11,24H12V25H11zM13,24H14V25H13zM14,24H15V25H14zM15,24H16V25H15zM16,24H17V25H16zM17,24H18V25H17zM20,24H21V25H20zM23,24H24V25H23zM24,24H25V25H24zM25,24H26V25H25zM26,24H27V25H26zM27,24H28V25H27zM28,24H29V25H28zM29,24H30V25H29zM32,24H33V25H32zM33,24H34V25H33zM34,24H35V25H34zM35,24H36V25H35zM36,24H37V25H36zM3,25H4V26H3zM5,25H6V26H5zM7,25H8V26H7zM9,25H10V26H9zM10,25H11V26H10zM12,25H13V26H12zM13,25H14V26H13zM14,25H15V26H14zM17,25H18V26H17zM21,25H22V26H21zM23,25H24V26H23zM25,25H26V26H25zM28,25H29V26H28zM29,25H30V26H29zM30,25H31V26H30zM33,25H34V26H33zM34,25H35V26H34zM36,25H37V26H36zM37,25H38V26H37zM38,25H39V26H38zM5,26H6V27H5zM6,26H7V27H6zM7,26H8V27H7zM8,26H9V27H8zM9,26H10V27H9zM10,26H11V27H10zM11,26H12V27H11zM12,26H13V27H12zM14,26H15V27H14zM15,26H16V27H15zM16,26H17V27H16zM17,26H18V27H17zM18,26H19V27H18zM21,26H22V27H21zM22,26H23V27H22zM25,26H26V27H25zM26,26H27V27H26zM30,26H31V27H30zM32,26H33V27H32zM35,26H36V27H35zM36,26H37V27H36zM38,26H39V27H38zM2,27H3V28H2zM5,27H6V28H5zM7,27H8V28H7zM10,27H11V28H10zM13,27H14V28H13zM16,27H17V28H16zM19,27H20V28H19zM20,27H21V28H20zM21,27H22V28H21zM23,27H24V28H23zM25,27H26V28H25zM27,27H28V28H27zM28,27H29V28H28zM29,27H30V28H29zM31,27H32V28H31zM33,27H34V28H33zM34,27H35V28H34zM35,27H36V28H35zM36,27H37V28H36zM5,28H6V29H5zM8,28H9V29H8zM9,28H10V29H9zM10,28H11V29H10zM11,28H12V29H11zM15,28H16V29H15zM16,28H17V29H16zM17,28H18V29H17zM20,28H21V29H20zM21,28H22V29H21zM23,28H24V29H23zM24,28H25V29H24zM25,28H26V29H25zM26,28H27V29H26zM27,28H28V29H27zM29,28H30V29H29zM5,29H6V30H5zM6,29H7V30H6zM7,29H8V30H7zM10,29H11V30H10zM13,29H14V30H13zM16,29H17V30H16zM17,29H18V30H17zM18,29H19V30H18zM19,29H20V30H19zM21,29H22V30H21zM22,29H23V30H22zM23,29H24V30H23zM26,29H27V30H26zM28,29H29V30H28zM29,29H30V30H29zM31,29H32V30H31zM36,29H37V30H36zM37,29H38V30H37zM38,29H39V30H38zM2,30H3V31H2zM3,30H4V31H3zM6,30H7V31H6zM8,30H9V31H8zM9,30H10V31H9zM10,30H11V31H10zM14,30H15V31H14zM15,30H16V31H15zM16,30H17V31H16zM19,30H20V31H19zM23,30H24V31H23zM24,30H25V31H24zM25,30H26V31H25zM26,30H27V31H26zM29,30H30V31H29zM30,30H31V31H30zM31,30H32V31H31zM32,30H33V31H32zM33,30H34V31H33zM34,30H35V31H34zM35,30H36V31H35zM36,30H37V31H36zM37,30H38V31H37zM38,30H39V31H38zM10,31H11V32H10zM11,31H12V32H11zM12,31H13V32H12zM16,31H17V32H16zM17,31H18V32H17zM18,31H19V32H18zM20,31H21V32H20zM23,31H24V32H23zM24,31H25V32H24zM25,31H26V32H25zM27,31H28V32H27zM30,31H31V32H30zM34,31H35V32H34zM37,31H38V32H37zM2,32H3V33H2zM3,32H4V33H3zM4,32H5V33H4zM5,32H6V33H5zM6,32H7V33H6zM7,32H8V33H7zM8,32H9V33H8zM10,32H11V33H10zM11,32H12V33H11zM12,32H13V33H12zM14,32H15V33H14zM15,32H16V33H15zM17,32H18V33H17zM19,32H20V33H19zM22,32H23V33H22zM25,32H26V33H25zM30,32H31V33H30zM32,32H33V33H32zM34,32H35V33H34zM37,32H38V33H37zM2,33H3V34H2zM8,33H9V34H8zM12,33H13V34H12zM13,33H14V34H13zM15,33H16V34H15zM16,33H17V34H16zM19,33H20V34H19zM20,33H21V34H20zM22,33H23V34H22zM24,33H25V34H24zM28,33H29V34H28zM30,33H31V34H30zM34,33H35V34H34zM35,33H36V34H35zM36,33H37V34H36zM2,34H3V35H2zM4,34H5V35H4zM5,34H6V35H5zM6,34H7V35H6zM8,34H9V35H8zM10,34H11V35H10zM13,34H14V35H13zM14,34H15V35H14zM16,34H17V35H16zM17,34H18V35H17zM20,34H21V35H20zM21,34H22V35H21zM24,34H25V35H24zM26,34H27V35H26zM30,34H31V35H30zM31,34H32V35H31zM32,34H33V35H32zM33,34H34V35H33zM34,34H35V35H34zM35,34H36V35H35zM36,34H37V35H36zM37,34H38V35H37zM2,35H3V36H2zM4,35H5V36H4zM5,35H6V36H5zM6,35H7V36H6zM8,35H9V36H8zM11,35H12V36H11zM14,35H15V36H14zM16,35H17V36H16zM18,35H19V36H18zM19,35H20V36H19zM21,35H22V36H21zM22,35H23V36H22zM25,35H26V36H25zM27,35H28V36H27zM28,35H29V36H28zM31,35H32V36H31zM32,35H33V36H32zM33,35H34V36H33zM35,35H36V36H35zM38,35H39V36H38zM2,36H3V37H2zM4,36H5V37H4zM5,36H6V37H5zM6,36H7V37H6zM8,36H9V37H8zM12,36H13V37H12zM14,36H15V37H14zM15,36H16V37H15zM16,36H17V37H16zM18,36H19V37H18zM19,36H20V37H19zM20,36H21V37H20zM22,36H23V37H22zM25,36H26V37H25zM28,36H29V37H28zM31,36H32V37H31zM32,36H33V37H32zM36,36H37V37H36zM2,37H3V38H2zM8,37H9V38H8zM11,37H12V38H11zM13,37H14V38H13zM15,37H16V38H15zM16,37H17V38H16zM19,37H20V38H19zM23,37H24V38H23zM24,37H25V38H24zM26,37H27V38H26zM29,37H30V38H29zM31,37H32V38H31zM34,37H35V38H34zM36,37H37V38H36zM37,37H38V38H37zM2,38H3V39H2zM3,38H4V39H3zM4,38H5V39H4zM5,38H6V39H5zM6,38H7V39H6zM7,38H8V39H7zM8,38H9V39H8zM10,38H11V39H10zM12,38H13V39H12zM14,38H15V39H14zM16,38H17V39H16zM17,38H18V39H17zM19,38H20V39H19zM20,38H21V39H20zM21,38H22V39H21zM22,38H23V39H22zM23,38H24V39H23zM24,38H25V39H24zM25,38H26V39H25zM33,38H34V39H33zM35,38H36V39H35zM36,38H37V39H36zM37,38H38V39H37zM38,38H39V39H38z" id="qr-path" fill="#001C3D" fill-opacity="1" fill-rule="nonzero" stroke="none" /></svg>